<svg xmlns="http://www.w3.org/2000/svg" width="300" height="300" viewBox="0 0 300 300"><circle fill="#05262E" cx="28.879" cy="32.187" r="21"/><path fill="#1BA7CC" d="M27.512 29.765c0-4.09 1.863-7.41 4.163-7.41l.16.008c-.477-1.836-1.248-3.032-2.12-3.032-1.45 0-2.624 3.318-2.624 7.41 0 1.595.18 3.07.482 4.28-.038-.408-.06-.827-.06-1.255z"/><path fill="#fff" d="M26.2 31.44c-2.893-2.894-3.922-6.556-2.296-8.183l.118-.107c-1.636-.963-3.026-1.262-3.642-.647-1.024 1.026.49 4.203 3.383 7.096 1.127 1.127 2.297 2.044 3.365 2.684-.314-.26-.625-.54-.928-.844z"/><path fill="#1BA7CC" d="M26.457 33.553c-4.092 0-7.41-1.864-7.41-4.163l.006-.16c-1.838.476-3.03 1.248-3.03 2.12 0 1.45 3.316 2.625 7.408 2.625 1.596 0 3.07-.18 4.28-.48-.407.037-.825.058-1.253.058z"/><path fill="#fff" d="M28.132 34.865c-2.894 2.893-6.557 3.922-8.183 2.296l-.11-.118c-.96 1.638-1.26 3.027-.646 3.643 1.026 1.026 4.203-.49 7.097-3.383 1.128-1.126 2.045-2.296 2.685-3.366-.26.316-.54.626-.843.93z"/><path fill="#1BA7CC" d="M30.244 34.607c0 4.093-1.864 7.41-4.162 7.41l-.162-.007c.48 1.84 1.25 3.033 2.12 3.033 1.45 0 2.626-3.318 2.626-7.41 0-1.595-.18-3.07-.482-4.277.04.406.06.825.06 1.25z"/><path fill="#fff" d="M31.556 32.933c2.894 2.893 3.92 6.557 2.296 8.182l-.118.108c1.637.964 3.026 1.263 3.642.647 1.026-1.026-.49-4.203-3.383-7.096-1.127-1.128-2.298-2.044-3.366-2.684.317.26.628.54.93.843z"/><path fill="#1BA7CC" d="M31.3 30.82c4.092 0 7.408 1.864 7.408 4.163l-.007.16c1.84-.476 3.034-1.25 3.034-2.118 0-1.45-3.318-2.626-7.41-2.626-1.593 0-3.068.178-4.276.48.407-.038.824-.06 1.25-.06z"/><path fill="#fff" d="M29.625 29.508c2.894-2.893 6.557-3.92 8.182-2.295l.108.118c.963-1.637 1.262-3.025.646-3.64-1.025-1.026-4.2.488-7.095 3.38-1.127 1.13-2.044 2.3-2.684 3.368.262-.315.542-.626.845-.93z"/><text transform="translate(62.5 41.006)"><tspan x="0" y="0" fill="#1FA8CC" font-family="'Lato-Black'" font-size="26">WEB</tspan><tspan x="59.592" y="0" fill="#1B1B1B" font-family="'Lato-Black'" font-size="26">VANE</tspan></text><path fill="#fff" d="M48.464 86.912H41.36v-1.59c0-.682-.453-1.397-1.075-1.696l-1.514-.73c-.437-.21-1.11-.365-1.6-.365h-5.09c-.487 0-1.16.155-1.6.366l-1.51.73c-.623.3-1.073 1.013-1.073 1.695v1.59h-7.105c-.917 0-1.664.737-1.664 1.643v10.343c0 .573.294 1.083.743 1.39v9.043c0 .945.75 1.742 1.707 1.814.05.004 5.263.386 13.05.386 7.788 0 13-.382 13.052-.386.955-.072 1.706-.87 1.706-1.815v-9.045c.448-.306.743-.817.743-1.39v-10.34c-.003-.907-.75-1.643-1.666-1.643zM29.69 85.334c.008-.036.05-.1.078-.124l1.5-.724c.19-.092.6-.186.814-.186h5.09c.213 0 .623.093.813.186l1.504.724c.027.024.068.088.077.124v1.578H29.69v-1.578zm12.82 3.498v10.106c-1.55.05-3.33.094-5.277.116-.072-.81-.763-1.45-1.604-1.45h-2.003c-.84 0-1.532.64-1.604 1.45-1.947-.02-3.73-.066-5.277-.116V88.832H42.51zm-6.78 10.364v1.67c0 .05-.048.1-.1.1h-2.003c-.053 0-.1-.05-.1-.1v-1.67c0-.053.046-.1.1-.1h2.002c.053 0 .1.046.1.1zm-14.656-.515v-9.848h3.78V98.87c-1.932-.08-3.278-.158-3.78-.19zm26.365 10.557c-.73.05-5.666.374-12.812.374-7.14 0-12.08-.323-12.81-.373v-8.59c.71.04 1.75.092 3.036.143v1.727c0 .515.423.934.946.934.52 0 .945-.418.945-.932v-1.66c1.55.052 3.334.095 5.275.118.057.825.755 1.48 1.605 1.48h2.002c.85 0 1.547-.656 1.605-1.48 1.942-.022 3.724-.066 5.275-.117v1.657c0 .515.423.934.946.934.52 0 .945-.418.945-.932v-1.728c1.287-.05 2.326-.104 3.037-.143v8.59zm.742-10.556c-.5.032-1.85.112-3.782.19V88.83h3.782v9.85zM84.776 82.53c-8.822 0-16 7.18-16 16s7.178 16 16 16 16-7.177 16-16-7.178-16-16-16zm13.64 10.404c-1.21-1.316-2.828-2.444-4.738-3.304-.86-1.91-1.99-3.53-3.304-4.737 3.634 1.496 6.544 4.406 8.04 8.04zM93.9 94.637c-1.426-.27-2.995-.47-4.632-.598-.128-1.638-.328-3.207-.598-4.634 1.457.256 2.824.653 4.065 1.165.513 1.243.91 2.61 1.166 4.067zm.446-3.296c2.334 1.282 4.038 3.02 4.772 5-.97-.573-2.315-1.05-3.904-1.425-.195-1.254-.488-2.452-.868-3.574zm-.107 7.19c0 .873-.052 1.727-.146 2.558-1.363.283-2.95.517-4.74.667.058-1.063.088-2.144.088-3.224s-.03-2.16-.09-3.223c1.794.15 3.38.385 4.742.667.093.83.145 1.685.145 2.557zm-9.464 3.412c-1.162 0-2.266-.035-3.314-.096-.06-1.048-.096-2.153-.096-3.314 0-1.162.035-2.267.096-3.314 1.048-.06 2.153-.096 3.314-.096s2.267.035 3.314.096c.06 1.048.096 2.153.096 3.314s-.035 2.267-.096 3.314c-1.048.06-2.152.096-3.314.096zM88 103.107c-.15 1.793-.384 3.378-.667 4.74-.83.095-1.685.146-2.557.146s-1.726-.05-2.557-.145c-.283-1.363-.518-2.95-.668-4.74 1.063.058 2.145.088 3.224.088 1.08 0 2.16-.03 3.224-.09zM75.313 98.53c0-.87.052-1.725.145-2.556 1.363-.282 2.95-.517 4.74-.667-.058 1.063-.088 2.145-.088 3.224 0 1.08.03 2.162.09 3.225-1.794-.15-3.38-.384-4.742-.667-.093-.83-.145-1.684-.145-2.557zm6.238-4.575c.152-1.793.386-3.378.668-4.74.83-.095 1.685-.146 2.557-.146s1.726.05 2.557.144c.283 1.363.517 2.95.667 4.74-1.064-.058-2.145-.088-3.225-.088s-2.16.03-3.224.09zm6.842-5.862c-.375-1.59-.852-2.933-1.424-3.904 1.978.733 3.717 2.437 5 4.77-1.124-.38-2.322-.672-3.576-.867zm-1.356-.17c-.74-.07-1.492-.11-2.26-.11-.768 0-1.52.04-2.26.11.684-2.646 1.553-4.138 2.26-4.138.707 0 1.576 1.493 2.26 4.137zm-4.45-3.734c-.574.97-1.05 2.314-1.426 3.903-1.254.195-2.452.488-3.574.868 1.28-2.333 3.02-4.036 5-4.77zm-1.704 5.216c-.27 1.426-.47 2.996-.598 4.633-1.637.128-3.206.328-4.633.597.257-1.457.654-2.824 1.166-4.066 1.242-.51 2.61-.908 4.066-1.164zm-6.544 5.51c-1.59.375-2.933.85-3.904 1.424.734-1.978 2.438-3.718 4.772-5-.38 1.123-.673 2.32-.868 3.575zm-.17 1.355c-.07.74-.11 1.494-.11 2.26 0 .77.04 1.522.11 2.26-2.646-.683-4.138-1.552-4.138-2.26 0-.706 1.493-1.575 4.137-2.26zm.17 5.877c.195 1.255.488 2.452.868 3.574-2.334-1.28-4.038-3.02-4.772-4.998.97.573 2.315 1.05 3.904 1.425zm1.313.278c1.427.27 2.997.47 4.634.598.13 1.637.33 3.206.598 4.633-1.457-.256-2.824-.653-4.066-1.165-.512-1.24-.91-2.608-1.165-4.065zm5.51 6.544c.376 1.588.852 2.932 1.425 3.903-1.978-.735-3.718-2.438-5-4.772 1.123.38 2.32.674 3.575.87zm1.356.17c.74.07 1.493.11 2.26.11.768 0 1.52-.04 2.26-.11-.684 2.645-1.553 4.137-2.26 4.137-.707 0-1.576-1.493-2.26-4.137zm4.45 3.733c.574-.97 1.05-2.315 1.425-3.904 1.256-.196 2.453-.49 3.575-.87-1.28 2.335-3.02 4.04-4.998 4.773zm1.704-5.217c.27-1.427.47-2.996.598-4.633 1.637-.128 3.206-.328 4.633-.598-.255 1.457-.652 2.824-1.164 4.065-1.242.513-2.61.91-4.066 1.166zm6.544-5.51c1.59-.374 2.933-.85 3.904-1.423-.735 1.978-2.438 3.717-4.772 5 .38-1.124.673-2.32.868-3.576zm.17-1.354c.07-.74.11-1.492.11-2.26 0-.768-.04-1.52-.11-2.26 2.646.684 4.138 1.553 4.138 2.26 0 .706-1.493 1.575-4.137 2.26zm-16.205-15.9c-1.317 1.208-2.445 2.827-3.305 4.737-1.91.86-3.53 1.988-4.737 3.303 1.496-3.634 4.405-6.544 8.04-8.04zm-8.043 19.236c1.208 1.315 2.827 2.444 4.737 3.304.86 1.91 1.99 3.53 3.304 4.737-3.635-1.497-6.544-4.406-8.04-8.042zm19.236 8.042c1.315-1.208 2.444-2.827 3.304-4.737 1.91-.86 3.53-1.99 4.737-3.304-1.496 3.634-4.406 6.543-8.04 8.04zM142.312 79.732c0-1.216-1.04-2.2-2.324-2.2h-18.353c-1.283 0-2.324.984-2.324 2.2v37.598c0 1.216 1.04 2.2 2.325 2.2h18.353c1.284 0 2.324-.984 2.324-2.2V79.732zm-14.236.91h5.6c.206 0 .373.316.373.52s-.168.518-.374.518h-5.6c-.204 0-.37-.316-.37-.52s.166-.518.37-.518zm2.793 37.295c-1.177 0-2.13-.903-2.13-2.018 0-1.115.953-2.02 2.13-2.02 1.176 0 2.13.904 2.13 2.02 0 1.113-.954 2.017-2.13 2.017zm10.895-4.628H119.86V83.234h21.905v30.074z"/><circle fill="#404040" cx="185.879" cy="97.031" r="21"/><path fill="#1BA7CC" d="M184.512 94.61c0-4.092 1.863-7.41 4.163-7.41l.16.006c-.477-1.836-1.248-3.032-2.12-3.032-1.45 0-2.624 3.317-2.624 7.41 0 1.594.18 3.07.482 4.28-.038-.408-.06-.827-.06-1.255z"/><path fill="#fff" d="M183.2 96.285c-2.893-2.894-3.922-6.556-2.296-8.183l.118-.107c-1.636-.963-3.026-1.262-3.642-.647-1.024 1.026.49 4.203 3.383 7.096 1.127 1.128 2.297 2.045 3.365 2.685-.314-.263-.625-.543-.928-.845z"/><path fill="#1BA7CC" d="M183.457 98.397c-4.092 0-7.41-1.864-7.41-4.163l.006-.16c-1.838.476-3.03 1.248-3.03 2.12 0 1.45 3.316 2.625 7.408 2.625 1.596 0 3.07-.18 4.28-.482-.407.038-.825.06-1.253.06z"/><path fill="#fff" d="M185.132 99.71c-2.894 2.892-6.557 3.92-8.183 2.295l-.11-.12c-.96 1.64-1.26 3.028-.646 3.644 1.026 1.025 4.203-.49 7.097-3.384 1.128-1.126 2.045-2.296 2.685-3.366-.26.316-.54.626-.843.93z"/><path fill="#1BA7CC" d="M187.244 99.45c0 4.094-1.864 7.41-4.162 7.41l-.162-.006c.48 1.84 1.25 3.033 2.12 3.033 1.45 0 2.626-3.318 2.626-7.41 0-1.595-.18-3.07-.482-4.277.04.406.06.825.06 1.25z"/><path fill="#fff" d="M188.556 97.777c2.894 2.893 3.92 6.557 2.296 8.182l-.118.107c1.637.964 3.026 1.263 3.642.647 1.026-1.026-.49-4.203-3.383-7.096-1.127-1.128-2.298-2.044-3.366-2.684.317.26.628.542.93.843z"/><path fill="#1BA7CC" d="M188.3 95.665c4.092 0 7.41 1.863 7.41 4.162l-.008.16c1.84-.476 3.033-1.25 3.033-2.118 0-1.452-3.318-2.627-7.41-2.627-1.593 0-3.068.18-4.276.482.405-.038.822-.06 1.25-.06z"/><path fill="#fff" d="M186.625 94.352c2.894-2.893 6.557-3.92 8.182-2.295l.108.118c.963-1.638 1.262-3.026.646-3.642-1.025-1.025-4.2.49-7.095 3.382-1.127 1.128-2.044 2.298-2.684 3.367.262-.315.542-.626.845-.93z"/><path fill="#404040" d="M130.406 271.278c-.027 0-.047-.013-.072-.013h-49.74c-.026 0-.046.013-.073.013-.71.038-1.277.583-1.277 1.268 0 .704.604 1.28 1.353 1.28h49.74c.743 0 1.35-.575 1.35-1.28-.004-.685-.57-1.232-1.28-1.268z"/><path d="M104.938 223c6.498 0 11.845-6.793 12.54-15.523.084-.564.132-1.14.14-1.725l-2.028 2.206c1.12-2.347-2.865-8.314-2.865-8.314-6.71 4.598-16.694 0-16.694 0-3.012 1.125-1.585 9.146-1.585 9.146-.75-.496-1.442-.755-2.004-.887.83 8.523 6.11 15.097 12.498 15.097z" fill="none"/><path fill="#010202" d="M116.918 223.563c-.072 3.257-5.174 5.887-11.456 5.887-6.282 0-11.38-2.63-11.456-5.887-6.747.583-12.454 4.534-15.265 10.055h53.445c-2.81-5.52-8.517-9.472-15.267-10.055z"/><path fill="#404040" d="M90.66 207.407c.01.13.022.257.034.385.912 9.76 6.943 17.3 14.242 17.3 7.4 0 13.492-7.74 14.28-17.683.11-.714.165-1.448.165-2.19 0-.745-.055-1.477-.163-2.19-1.058-6.91-7.05-12.205-14.28-12.205-7.23 0-13.22 5.298-14.277 12.212-.108.71-.162 1.442-.162 2.183 0 .304.01.602.027.898.027.436.07.863.135 1.29zm5.37-7.764s9.982 4.598 16.694 0c0 0 3.984 5.97 2.865 8.314l2.028-2.206c-.01.586-.056 1.163-.142 1.726-.694 8.73-6.04 15.523-12.54 15.523-6.387 0-11.667-6.575-12.496-15.1.562.134 1.254.39 2.004.887.002 0-1.427-8.018 1.586-9.144zM136.014 234.43H74.912c-1.705 0-3.09 1.31-3.09 2.924l3.09 29.71c0 1.614 1.384 2.922 3.09 2.922h54.922c1.708 0 3.09-1.308 3.09-2.923l3.088-29.71c0-1.616-1.383-2.924-3.088-2.924zm-30.57 20.185c-1.492 0-2.703-1.15-2.703-2.562 0-1.41 1.212-2.557 2.704-2.557 1.492 0 2.703 1.147 2.703 2.557 0 1.413-1.21 2.562-2.703 2.562zM185.753 260.147c-.02 0-.034-.01-.05-.01h-35.53c-.02 0-.036.01-.052.01-.507.028-.91.417-.91.906 0 .502.43.913.965.913h35.528c.53 0 .964-.408.964-.913-.002-.49-.41-.88-.914-.906z"/><path d="M167.56 225.663c4.64 0 8.462-4.85 8.957-11.087.06-.402.092-.815.1-1.234l-1.448 1.577c.797-1.677-2.048-5.94-2.048-5.94-4.795 3.282-11.926 0-11.926 0-2.152.803-1.132 6.53-1.132 6.53-.537-.352-1.03-.537-1.43-.633.593 6.09 4.364 10.786 8.927 10.786z" fill="none"/><path fill="#E84C3D" d="M176.12 226.065c-.053 2.328-3.697 4.206-8.184 4.206-4.49 0-8.13-1.878-8.183-4.205-4.822.417-8.897 3.238-10.906 7.183h38.173c-2.002-3.944-6.082-6.766-10.9-7.183z"/><path fill="#404040" d="M157.363 214.526c.007.09.016.183.027.274.65 6.972 4.956 12.36 10.17 12.36 5.288 0 9.637-5.528 10.2-12.63.077-.51.118-1.032.118-1.564s-.04-1.055-.117-1.564c-.756-4.938-5.034-8.72-10.2-8.72s-9.442 3.786-10.197 8.724c-.076.508-.117 1.03-.117 1.56 0 .216.007.43.02.642.02.31.052.616.097.918zm3.835-5.545s7.13 3.284 11.926 0c0 0 2.847 4.262 2.047 5.94l1.45-1.576c-.01.42-.04.83-.1 1.234-.498 6.236-4.317 11.087-8.957 11.087-4.563 0-8.333-4.696-8.926-10.785.402.096.892.28 1.43.634-.002 0-1.022-5.73 1.13-6.533zM189.76 233.827h-43.645c-1.22 0-2.206.934-2.206 2.09l2.205 21.22c0 1.154.986 2.088 2.204 2.088h39.23c1.22 0 2.206-.934 2.206-2.09l2.204-21.22c.003-1.154-.983-2.088-2.2-2.088zm-21.838 14.418c-1.067 0-1.93-.82-1.93-1.828 0-1.01.865-1.828 1.93-1.828s1.928.818 1.928 1.827c.002 1.01-.863 1.828-1.928 1.828zM60.805 260.147c-.018 0-.034-.01-.052-.01H25.227c-.018 0-.034.01-.052.01-.508.028-.912.417-.912.906 0 .502.43.913.964.913h35.528c.53 0 .964-.408.964-.913 0-.49-.407-.88-.915-.906z"/><path d="M42.615 225.663c4.642 0 8.46-4.85 8.956-11.087.062-.402.095-.815.102-1.234l-1.45 1.577c.8-1.677-2.046-5.94-2.046-5.94-4.795 3.282-11.924 0-11.924 0-2.152.803-1.132 6.53-1.132 6.53-.537-.352-1.03-.537-1.43-.633.592 6.09 4.362 10.786 8.925 10.786z" fill="none"/><path fill="#1FA8CC" d="M51.173 226.065c-.052 2.328-3.696 4.206-8.183 4.206-4.49 0-8.13-1.878-8.183-4.205-4.82.417-8.895 3.238-10.906 7.183h38.176c-2.006-3.944-6.084-6.766-10.903-7.183z"/><path fill="#404040" d="M32.417 214.526c.007.09.016.183.025.274.652 6.972 4.96 12.36 10.173 12.36 5.287 0 9.64-5.528 10.2-12.63.076-.51.117-1.032.117-1.564s-.043-1.055-.117-1.564c-.757-4.938-5.035-8.72-10.2-8.72-5.163 0-9.443 3.786-10.198 8.724-.076.508-.115 1.03-.115 1.56 0 .216.004.43.018.642.02.31.05.616.097.918zm3.835-5.545s7.13 3.284 11.924 0c0 0 2.847 4.262 2.047 5.94l1.45-1.576c-.008.42-.04.83-.102 1.234-.496 6.236-4.313 11.087-8.955 11.087-4.563 0-8.333-4.696-8.926-10.785.4.096.89.28 1.43.634 0 0-1.02-5.73 1.132-6.533zM64.813 233.827H21.167c-1.218 0-2.206.934-2.206 2.09l2.207 21.22c0 1.154.986 2.088 2.206 2.088h39.23c1.22 0 2.205-.934 2.205-2.09l2.204-21.22c.005-1.154-.98-2.088-2.2-2.088zm-21.84 14.418c-1.064 0-1.93-.82-1.93-1.828 0-1.01.866-1.828 1.93-1.828 1.068 0 1.93.818 1.93 1.827.004 1.01-.86 1.828-1.93 1.828z"/><path fill="#F5F7FA" d="M46.302 158.5c0 .552-.448 1-1 1h-26c-.552 0-1-.448-1-1V151c0-.552.448-1 1-1h26c.552 0 1 .448 1 1v7.5z"/><path fill="#EA5465" d="M46.302 168c0 .552-.448 1-1 1h-26c-.552 0-1-.448-1-1v-7.5c0-.552.448-1 1-1h26c.552 0 1 .448 1 1v7.5z"/><path fill="#5085C5" d="M18.302 156.083h28v6.833h-28z"/><path fill="#EA5465" d="M93.242 168.083c0 .552-.448 1-1 1h-26c-.552 0-1-.448-1-1v-17c0-.552.448-1 1-1h26c.552 0 1 .448 1 1v17z"/><path fill="#F5F7FA" d="M65.242 161.917h28v3.417h-28zM77.356 154.458h15.886v3.417H77.356z"/><path fill="#5085C5" d="M74.356 156.875c0 .552-.448 1-1 1h-7.114c-.552 0-1-.448-1-1v-5.792c0-.552.448-1 1-1h7.114c.552 0 1 .448 1 1v5.792zM67.964 150.083h9.392v11.833h-9.392zM65.242 157.417h5.28v4.5h-5.28z"/><path fill="#fff" d="M71.378 153.168l.92 1.865 2.058.298-1.49 1.453.353 2.05-1.842-.97-1.84.97.352-2.05-1.49-1.452 2.058-.297z"/></svg>