<?xml version="1.0" encoding="utf-8"?>
<!-- Generator: Adobe Illustrator 17.0.0, SVG Export Plug-In . SVG Version: 6.00 Build 0)  -->
<!DOCTYPE svg PUBLIC "-//W3C//DTD SVG 1.1//EN" "http://www.w3.org/Graphics/SVG/1.1/DTD/svg11.dtd">
<svg version="1.1" id="Layer_1" xmlns="http://www.w3.org/2000/svg" xmlns:xlink="http://www.w3.org/1999/xlink" x="0px" y="0px"
	 width="300px" height="300px" viewBox="0 0 300 300" enable-background="new 0 0 300 300" xml:space="preserve">
<circle fill="#05262E" cx="28.879" cy="32.187" r="21"/>
<path fill="#1BA7CC" d="M27.512,29.765c0-4.091,1.863-7.409,4.163-7.409l0.161,0.007c-0.478-1.836-1.249-3.032-2.12-3.032
	c-1.451,0-2.625,3.317-2.625,7.409c0,1.595,0.178,3.07,0.481,4.28C27.534,30.612,27.512,30.193,27.512,29.765z"/>
<path fill="#FFFFFF" d="M26.2,31.44c-2.893-2.894-3.922-6.556-2.296-8.183l0.118-0.107c-1.636-0.963-3.026-1.262-3.642-0.647
	c-1.024,1.026,0.49,4.203,3.383,7.096c1.127,1.128,2.297,2.045,3.365,2.685C26.814,32.023,26.503,31.743,26.2,31.44z"/>
<path fill="#1BA7CC" d="M26.457,33.553c-4.092,0-7.409-1.864-7.409-4.163l0.005-0.161c-1.838,0.477-3.031,1.249-3.031,2.12
	c0,1.45,3.317,2.626,7.409,2.626c1.595,0,3.069-0.179,4.278-0.481C27.303,33.532,26.885,33.553,26.457,33.553z"/>
<path fill="#FFFFFF" d="M28.132,34.865c-2.894,2.893-6.557,3.922-8.183,2.296l-0.108-0.119c-0.961,1.638-1.261,3.027-0.647,3.643
	c1.026,1.026,4.203-0.49,7.097-3.383c1.127-1.126,2.044-2.296,2.684-3.366C28.716,34.252,28.435,34.562,28.132,34.865z"/>
<path fill="#1BA7CC" d="M30.244,34.607c0,4.093-1.864,7.41-4.162,7.41L25.92,42.01c0.48,1.839,1.25,3.033,2.119,3.033
	c1.451,0,2.627-3.318,2.627-7.41c0-1.595-0.179-3.069-0.482-4.277C30.224,33.762,30.244,34.181,30.244,34.607z"/>
<path fill="#FFFFFF" d="M31.556,32.933c2.894,2.893,3.92,6.557,2.296,8.182l-0.118,0.108c1.637,0.964,3.026,1.263,3.642,0.647
	c1.026-1.026-0.49-4.203-3.383-7.096c-1.127-1.128-2.298-2.044-3.366-2.684C30.944,32.351,31.255,32.631,31.556,32.933z"/>
<path fill="#1BA7CC" d="M31.299,30.821c4.093,0,7.409,1.863,7.409,4.162l-0.007,0.161c1.839-0.477,3.033-1.25,3.033-2.119
	c0-1.451-3.318-2.626-7.409-2.626c-1.594,0-3.069,0.179-4.277,0.482C30.455,30.842,30.872,30.821,31.299,30.821z"/>
<path fill="#FFFFFF" d="M29.625,29.508c2.894-2.893,6.557-3.921,8.182-2.295l0.108,0.118c0.963-1.638,1.262-3.026,0.646-3.642
	c-1.026-1.025-4.202,0.489-7.096,3.382c-1.127,1.128-2.044,2.298-2.684,3.367C29.042,30.123,29.322,29.812,29.625,29.508z"/>
<text transform="matrix(1 0 0 1 62.5 41.0058)"><tspan x="0" y="0" fill="#1FA8CC" font-family="'Lato-Black'" font-size="26">WEB</tspan><tspan x="59.592" y="0" fill="#1B1B1B" font-family="'Lato-Black'" font-size="26">VANE</tspan></text>
<path fill="#FFFFFF" d="M48.464,86.912h-7.105v-1.59c0-0.682-0.452-1.397-1.074-1.696l-1.514-0.73
	c-0.438-0.211-1.111-0.365-1.6-0.365h-5.09c-0.488,0-1.161,0.154-1.6,0.365l-1.511,0.729c-0.623,0.3-1.073,1.014-1.073,1.696v1.59
	h-7.105c-0.917,0-1.664,0.736-1.664,1.642v10.343c0,0.573,0.294,1.083,0.743,1.389v9.044c0,0.946,0.75,1.743,1.706,1.815
	c0.051,0.004,5.263,0.386,13.051,0.386c7.787,0,12.998-0.382,13.051-0.386c0.956-0.072,1.707-0.869,1.707-1.815v-9.044
	c0.448-0.306,0.743-0.817,0.743-1.389V88.554C50.127,87.648,49.38,86.912,48.464,86.912z M29.689,85.334
	c0.009-0.036,0.05-0.101,0.079-0.124l1.501-0.724c0.19-0.092,0.6-0.186,0.813-0.186h5.09c0.213,0,0.623,0.093,0.813,0.186
	l1.504,0.724c0.028,0.024,0.069,0.088,0.078,0.124v1.578h-9.877V85.334z M42.51,88.832v10.106c-1.549,0.051-3.331,0.094-5.277,0.116
	c-0.072-0.81-0.763-1.449-1.604-1.449h-2.002c-0.84,0-1.532,0.638-1.604,1.449c-1.947-0.021-3.729-0.066-5.277-0.116V88.832H42.51z
	 M35.729,99.196v1.669c0,0.052-0.047,0.1-0.1,0.1h-2.002c-0.053,0-0.101-0.048-0.101-0.1v-1.669c0-0.053,0.047-0.1,0.101-0.1h2.002
	C35.683,99.096,35.729,99.142,35.729,99.196z M21.074,98.681v-9.849h3.78v10.037C22.922,98.791,21.576,98.712,21.074,98.681z
	 M47.439,109.237c-0.73,0.051-5.665,0.374-12.811,0.374c-7.141,0-12.081-0.324-12.811-0.374v-8.59
	c0.711,0.039,1.751,0.092,3.037,0.143v1.727v0.001c0,0.514,0.423,0.933,0.946,0.933c0.521,0,0.945-0.419,0.945-0.933v-0.001v-1.658
	c1.551,0.051,3.334,0.094,5.275,0.117c0.057,0.825,0.755,1.479,1.605,1.479h2.002c0.85,0,1.547-0.655,1.605-1.479
	c1.942-0.022,3.724-0.066,5.275-0.117v1.658v0.001c0,0.514,0.423,0.933,0.946,0.933c0.521,0,0.945-0.419,0.945-0.933v-0.001v-1.727
	c1.287-0.051,2.326-0.104,3.037-0.143V109.237z M48.182,98.681c-0.501,0.031-1.849,0.111-3.782,0.188V88.832h3.782V98.681z"/>
<path fill="#FFFFFF" d="M84.776,82.531c-8.822,0-16,7.178-16,16s7.178,16,16,16s16-7.178,16-16S93.598,82.531,84.776,82.531z
	 M98.415,92.934c-1.208-1.316-2.827-2.444-4.737-3.304c-0.86-1.91-1.989-3.529-3.304-4.737
	C94.008,86.389,96.918,89.299,98.415,92.934z M93.901,94.637c-1.427-0.27-2.996-0.47-4.633-0.598
	c-0.128-1.637-0.328-3.206-0.598-4.633c1.457,0.256,2.824,0.653,4.065,1.165C93.248,91.813,93.645,93.18,93.901,94.637z
	 M94.346,91.341c2.334,1.281,4.038,3.02,4.772,4.999c-0.971-0.573-2.315-1.049-3.904-1.425
	C95.019,93.661,94.726,92.463,94.346,91.341z M94.239,98.531c0,0.872-0.051,1.726-0.145,2.557c-1.363,0.283-2.949,0.517-4.741,0.667
	c0.059-1.063,0.089-2.144,0.089-3.224c0-1.08-0.031-2.161-0.089-3.224c1.793,0.151,3.378,0.385,4.741,0.667
	C94.187,96.805,94.239,97.659,94.239,98.531z M84.776,101.942c-1.162,0-2.266-0.035-3.314-0.096
	c-0.061-1.048-0.096-2.153-0.096-3.314c0-1.162,0.035-2.267,0.096-3.314c1.048-0.061,2.153-0.096,3.314-0.096
	s2.267,0.035,3.314,0.096c0.061,1.048,0.096,2.153,0.096,3.314s-0.035,2.267-0.096,3.314
	C87.042,101.907,85.938,101.942,84.776,101.942z M88,103.107c-0.151,1.793-0.384,3.378-0.667,4.741
	c-0.831,0.094-1.685,0.145-2.557,0.145s-1.726-0.051-2.557-0.145c-0.282-1.363-0.517-2.949-0.667-4.741
	c1.063,0.059,2.145,0.089,3.224,0.089C85.856,103.197,86.937,103.166,88,103.107z M75.313,98.531c0-0.872,0.052-1.726,0.145-2.557
	c1.363-0.282,2.949-0.517,4.741-0.667c-0.059,1.063-0.089,2.145-0.089,3.224c0,1.08,0.031,2.161,0.089,3.224
	c-1.793-0.151-3.378-0.384-4.741-0.667C75.365,100.257,75.313,99.404,75.313,98.531z M81.551,93.955
	c0.151-1.793,0.385-3.378,0.667-4.741c0.831-0.094,1.685-0.145,2.557-0.145s1.726,0.052,2.557,0.145
	c0.283,1.363,0.517,2.949,0.667,4.741c-1.063-0.059-2.144-0.089-3.224-0.089C83.696,93.866,82.615,93.896,81.551,93.955z
	 M88.392,88.093c-0.375-1.589-0.852-2.933-1.424-3.904c1.978,0.734,3.717,2.438,4.999,4.772
	C90.844,88.581,89.646,88.288,88.392,88.093z M87.036,87.922c-0.739-0.07-1.492-0.109-2.26-0.109c-0.768,0-1.521,0.039-2.26,0.109
	c0.684-2.645,1.553-4.137,2.26-4.137C85.483,83.786,86.352,85.278,87.036,87.922z M82.585,84.189
	c-0.573,0.971-1.049,2.315-1.425,3.904c-1.254,0.195-2.452,0.488-3.574,0.868C78.867,86.627,80.606,84.924,82.585,84.189z
	 M80.882,89.406c-0.27,1.426-0.47,2.996-0.598,4.633c-1.637,0.129-3.206,0.329-4.633,0.598c0.256-1.457,0.653-2.824,1.165-4.066
	C78.058,90.059,79.425,89.662,80.882,89.406z M74.338,94.915c-1.589,0.376-2.933,0.852-3.904,1.425
	c0.734-1.978,2.438-3.718,4.772-4.999C74.826,92.463,74.533,93.661,74.338,94.915z M74.167,96.271
	c-0.07,0.739-0.109,1.493-0.109,2.26c0,0.768,0.039,1.521,0.109,2.26c-2.645-0.684-4.137-1.553-4.137-2.26
	C70.031,97.824,71.523,96.955,74.167,96.271z M74.338,102.147c0.195,1.255,0.488,2.452,0.868,3.574
	c-2.334-1.281-4.038-3.02-4.772-4.999C71.404,101.295,72.749,101.771,74.338,102.147z M75.651,102.425
	c1.426,0.27,2.996,0.469,4.633,0.598c0.129,1.637,0.329,3.206,0.598,4.633c-1.457-0.256-2.824-0.653-4.066-1.165
	C76.304,105.249,75.907,103.882,75.651,102.425z M81.16,108.969c0.376,1.589,0.852,2.933,1.425,3.904
	c-1.978-0.735-3.718-2.438-4.999-4.772C78.708,108.481,79.906,108.774,81.16,108.969z M82.516,109.14
	c0.739,0.07,1.493,0.109,2.26,0.109c0.768,0,1.521-0.039,2.26-0.109c-0.684,2.645-1.553,4.137-2.26,4.137
	C84.069,113.276,83.2,111.784,82.516,109.14z M86.967,112.873c0.573-0.971,1.049-2.315,1.424-3.904
	c1.255-0.195,2.452-0.488,3.574-0.868C90.685,110.435,88.946,112.139,86.967,112.873z M88.67,107.656
	c0.27-1.427,0.469-2.996,0.598-4.633c1.637-0.128,3.206-0.328,4.633-0.598c-0.256,1.457-0.653,2.824-1.165,4.065
	C91.494,107.003,90.127,107.4,88.67,107.656z M95.214,102.147c1.589-0.375,2.933-0.852,3.904-1.424
	c-0.735,1.978-2.438,3.717-4.772,4.999C94.726,104.599,95.019,103.402,95.214,102.147z M95.385,100.792
	c0.07-0.739,0.109-1.492,0.109-2.26c0-0.768-0.039-1.521-0.109-2.26c2.645,0.684,4.137,1.553,4.137,2.26
	C99.521,99.238,98.029,100.107,95.385,100.792z M79.179,84.892c-1.316,1.208-2.444,2.827-3.304,4.737
	c-1.91,0.86-3.529,1.989-4.737,3.304C72.634,89.299,75.543,86.389,79.179,84.892z M71.137,104.128
	c1.208,1.315,2.827,2.444,4.737,3.304c0.86,1.911,1.989,3.529,3.304,4.737C75.543,110.673,72.634,107.764,71.137,104.128z
	 M90.373,112.17c1.315-1.208,2.444-2.827,3.304-4.737c1.911-0.86,3.529-1.989,4.737-3.304
	C96.918,107.764,94.008,110.673,90.373,112.17z"/>
<path fill="#FFFFFF" d="M142.312,79.732c0-1.216-1.04-2.201-2.324-2.201h-18.353c-1.283,0-2.324,0.985-2.324,2.201v37.598
	c0,1.216,1.04,2.201,2.324,2.201h18.353c1.284,0,2.324-0.985,2.324-2.201V79.732z M128.076,80.642h5.6
	c0.206,0,0.373,0.316,0.373,0.519s-0.167,0.519-0.373,0.519h-5.6c-0.204,0-0.371-0.316-0.371-0.519S127.872,80.642,128.076,80.642z
	 M130.869,117.937c-1.176,0-2.13-0.903-2.13-2.018c0-1.114,0.954-2.018,2.13-2.018c1.177,0,2.131,0.903,2.131,2.018
	C133,117.033,132.046,117.937,130.869,117.937z M141.765,113.309H119.86V83.235h21.905V113.309z"/>
<circle fill="#404040" cx="185.879" cy="97.031" r="21"/>
<path fill="#1BA7CC" d="M184.512,94.609c0-4.091,1.863-7.41,4.163-7.41l0.161,0.007c-0.478-1.836-1.249-3.032-2.12-3.032
	c-1.451,0-2.625,3.317-2.625,7.409c0,1.595,0.178,3.07,0.481,4.28C184.534,95.456,184.512,95.037,184.512,94.609z"/>
<path fill="#FFFFFF" d="M183.2,96.285c-2.893-2.894-3.922-6.556-2.296-8.183l0.118-0.107c-1.636-0.963-3.026-1.262-3.642-0.647
	c-1.024,1.026,0.49,4.203,3.383,7.096c1.127,1.128,2.297,2.045,3.365,2.685C183.814,96.867,183.503,96.587,183.2,96.285z"/>
<path fill="#1BA7CC" d="M183.457,98.397c-4.092,0-7.409-1.864-7.409-4.163l0.005-0.161c-1.838,0.477-3.031,1.249-3.031,2.12
	c0,1.45,3.317,2.626,7.409,2.626c1.595,0,3.069-0.179,4.278-0.481C184.303,98.376,183.885,98.397,183.457,98.397z"/>
<path fill="#FFFFFF" d="M185.132,99.709c-2.894,2.893-6.557,3.922-8.183,2.296l-0.108-0.119c-0.961,1.638-1.261,3.027-0.647,3.643
	c1.026,1.026,4.203-0.49,7.097-3.383c1.127-1.126,2.044-2.296,2.684-3.366C185.716,99.096,185.435,99.406,185.132,99.709z"/>
<path fill="#1BA7CC" d="M187.244,99.451c0,4.093-1.864,7.41-4.162,7.41l-0.162-0.007c0.48,1.839,1.25,3.033,2.119,3.033
	c1.451,0,2.627-3.318,2.627-7.41c0-1.595-0.179-3.069-0.482-4.277C187.224,98.606,187.244,99.025,187.244,99.451z"/>
<path fill="#FFFFFF" d="M188.556,97.777c2.894,2.893,3.92,6.557,2.296,8.182l-0.118,0.108c1.637,0.964,3.026,1.263,3.642,0.647
	c1.026-1.026-0.49-4.203-3.383-7.096c-1.127-1.128-2.298-2.044-3.366-2.684C187.944,97.195,188.255,97.476,188.556,97.777z"/>
<path fill="#1BA7CC" d="M188.299,95.665c4.093,0,7.41,1.863,7.41,4.162l-0.007,0.161c1.839-0.477,3.033-1.25,3.033-2.119
	c0-1.451-3.318-2.626-7.409-2.626c-1.594,0-3.069,0.179-4.277,0.482C187.455,95.687,187.872,95.665,188.299,95.665z"/>
<path fill="#FFFFFF" d="M186.625,94.352c2.894-2.893,6.557-3.921,8.182-2.295l0.108,0.118c0.963-1.638,1.262-3.026,0.646-3.642
	c-1.026-1.025-4.202,0.489-7.096,3.382c-1.127,1.128-2.044,2.298-2.684,3.367C186.042,94.967,186.322,94.656,186.625,94.352z"/>
<path fill="#404040" d="M130.406,271.278c-0.027,0-0.047-0.013-0.072-0.013H80.595c-0.027,0-0.047,0.013-0.074,0.013
	c-0.71,0.038-1.278,0.583-1.278,1.268c0,0.704,0.604,1.279,1.353,1.279h49.739c0.744,0,1.35-0.574,1.35-1.279
	C131.682,271.861,131.116,271.314,130.406,271.278z"/>
<g>
	<path fill="none" d="M104.938,223c6.498,0,11.845-6.793,12.539-15.523c0.085-0.564,0.133-1.14,0.142-1.725l-2.029,2.206
		c1.119-2.347-2.865-8.314-2.865-8.314c-6.711,4.598-16.694,0-16.694,0c-3.013,1.125-1.586,9.146-1.586,9.146
		c-0.75-0.496-1.442-0.755-2.004-0.887C93.271,216.426,98.549,223,104.938,223z"/>
	<path fill="#010202" d="M116.918,223.563c-0.072,3.257-5.174,5.887-11.456,5.887c-6.282,0-11.38-2.63-11.456-5.887
		c-6.747,0.583-12.454,4.534-15.265,10.055h53.444C129.374,228.097,123.668,224.146,116.918,223.563z"/>
	<path fill="#404040" d="M90.66,207.407c0.011,0.13,0.022,0.257,0.034,0.385c0.912,9.759,6.943,17.299,14.242,17.299
		c7.399,0,13.492-7.738,14.281-17.682c0.108-0.713,0.164-1.447,0.164-2.189c0-0.745-0.056-1.477-0.164-2.189
		c-1.058-6.912-7.05-12.206-14.281-12.206c-7.23,0-13.22,5.298-14.276,12.212c-0.108,0.711-0.162,1.442-0.162,2.183
		c0,0.304,0.009,0.602,0.027,0.898C90.552,206.554,90.595,206.981,90.66,207.407z M96.03,199.643c0,0,9.982,4.598,16.694,0
		c0,0,3.984,5.97,2.865,8.314l2.029-2.206c-0.011,0.585-0.056,1.162-0.142,1.725c-0.694,8.729-6.039,15.523-12.539,15.523
		c-6.388,0-11.668-6.574-12.497-15.099c0.562,0.134,1.254,0.391,2.004,0.887C94.446,208.788,93.017,200.769,96.03,199.643z"/>
</g>
<path fill="#404040" d="M136.014,234.429H74.912c-1.705,0-3.089,1.311-3.089,2.925l3.089,29.709c0,1.615,1.384,2.923,3.089,2.923
	h54.923c1.708,0,3.089-1.308,3.089-2.923l3.089-29.709C139.103,235.737,137.719,234.429,136.014,234.429z M105.444,254.615
	c-1.492,0-2.703-1.149-2.703-2.562c0-1.411,1.211-2.557,2.703-2.557c1.492,0,2.703,1.147,2.703,2.557
	C108.147,253.466,106.936,254.615,105.444,254.615z"/>
<path fill="#404040" d="M185.753,260.147c-0.02,0-0.034-0.009-0.049-0.009h-35.531c-0.02,0-0.036,0.009-0.052,0.009
	c-0.508,0.028-0.91,0.417-0.91,0.906c0,0.502,0.429,0.913,0.964,0.913h35.528c0.53,0,0.964-0.408,0.964-0.913
	C186.665,260.564,186.258,260.174,185.753,260.147z"/>
<g>
	<path fill="none" d="M167.561,225.663c4.64,0,8.461-4.851,8.956-11.087c0.061-0.402,0.092-0.815,0.101-1.234l-1.449,1.577
		c0.798-1.676-2.047-5.94-2.047-5.94c-4.795,3.283-11.926,0-11.926,0c-2.152,0.804-1.132,6.532-1.132,6.532
		c-0.537-0.353-1.029-0.538-1.431-0.634C159.227,220.968,162.998,225.663,167.561,225.663z"/>
	<path fill="#E84C3D" d="M176.119,226.065c-0.052,2.328-3.696,4.206-8.183,4.206c-4.489,0-8.129-1.879-8.183-4.206
		c-4.822,0.417-8.897,3.238-10.906,7.183h38.173C185.018,229.304,180.938,226.482,176.119,226.065z"/>
	<path fill="#404040" d="M157.363,214.526c0.007,0.091,0.016,0.183,0.027,0.274c0.649,6.972,4.956,12.359,10.171,12.359
		c5.287,0,9.636-5.527,10.2-12.629c0.076-0.511,0.117-1.032,0.117-1.564c0-0.532-0.04-1.055-0.117-1.564
		c-0.757-4.938-5.035-8.719-10.2-8.719s-9.443,3.785-10.198,8.723c-0.076,0.508-0.117,1.03-0.117,1.559
		c0,0.217,0.007,0.43,0.02,0.643C157.286,213.917,157.318,214.224,157.363,214.526z M161.198,208.981c0,0,7.131,3.283,11.926,0
		c0,0,2.847,4.261,2.047,5.94l1.449-1.577c-0.009,0.419-0.04,0.83-0.101,1.234c-0.497,6.236-4.316,11.087-8.956,11.087
		c-4.563,0-8.333-4.696-8.926-10.785c0.402,0.096,0.892,0.281,1.431,0.634C160.065,215.513,159.045,209.785,161.198,208.981z"/>
</g>
<path fill="#404040" d="M189.759,233.827h-43.644c-1.22,0-2.206,0.934-2.206,2.089l2.206,21.22c0,1.155,0.986,2.089,2.204,2.089
	h39.231c1.22,0,2.206-0.934,2.206-2.089l2.204-21.22C191.963,234.761,190.977,233.827,189.759,233.827z M167.922,248.245
	c-1.067,0-1.93-0.821-1.93-1.828c0-1.011,0.865-1.828,1.93-1.828s1.928,0.819,1.928,1.828
	C169.852,247.426,168.987,248.245,167.922,248.245z"/>
<path fill="#404040" d="M60.805,260.147c-0.018,0-0.034-0.009-0.052-0.009H25.227c-0.018,0-0.034,0.009-0.052,0.009
	c-0.508,0.028-0.912,0.417-0.912,0.906c0,0.502,0.431,0.913,0.964,0.913h35.528c0.53,0,0.964-0.408,0.964-0.913
	C61.719,260.564,61.313,260.174,60.805,260.147z"/>
<g>
	<path fill="none" d="M42.615,225.663c4.642,0,8.461-4.851,8.956-11.087c0.061-0.402,0.094-0.815,0.101-1.234l-1.449,1.577
		c0.798-1.676-2.047-5.94-2.047-5.94c-4.795,3.283-11.924,0-11.924,0c-2.152,0.804-1.132,6.532-1.132,6.532
		c-0.537-0.353-1.029-0.538-1.431-0.634C34.282,220.968,38.052,225.663,42.615,225.663z"/>
	<path fill="#1FA8CC" d="M51.173,226.065c-0.052,2.328-3.696,4.206-8.183,4.206c-4.489,0-8.131-1.879-8.183-4.206
		c-4.819,0.417-8.895,3.238-10.906,7.183h38.175C60.07,229.304,55.992,226.482,51.173,226.065z"/>
	<path fill="#404040" d="M32.417,214.526c0.007,0.091,0.016,0.183,0.025,0.274c0.652,6.972,4.959,12.359,10.173,12.359
		c5.287,0,9.639-5.527,10.2-12.629c0.076-0.511,0.117-1.032,0.117-1.564c0-0.532-0.043-1.055-0.117-1.564
		c-0.757-4.938-5.035-8.719-10.2-8.719c-5.163,0-9.443,3.785-10.198,8.723c-0.076,0.508-0.115,1.03-0.115,1.559
		c0,0.217,0.004,0.43,0.018,0.643C32.34,213.917,32.37,214.224,32.417,214.526z M36.252,208.981c0,0,7.129,3.283,11.924,0
		c0,0,2.847,4.261,2.047,5.94l1.449-1.577c-0.007,0.419-0.04,0.83-0.101,1.234c-0.497,6.236-4.314,11.087-8.956,11.087
		c-4.563,0-8.333-4.696-8.926-10.785c0.402,0.096,0.892,0.281,1.431,0.634C35.12,215.513,34.1,209.785,36.252,208.981z"/>
</g>
<path fill="#404040" d="M64.813,233.827H21.167c-1.218,0-2.206,0.934-2.206,2.089l2.206,21.22c0,1.155,0.986,2.089,2.206,2.089
	h39.229c1.22,0,2.206-0.934,2.206-2.089l2.204-21.22C67.017,234.761,66.031,233.827,64.813,233.827z M42.974,248.245
	c-1.065,0-1.93-0.821-1.93-1.828c0-1.011,0.865-1.828,1.93-1.828c1.067,0,1.93,0.819,1.93,1.828
	C44.907,247.426,44.042,248.245,42.974,248.245z"/>
<path fill="#F5F7FA" d="M46.302,158.5c0,0.552-0.448,1-1,1h-26c-0.552,0-1-0.448-1-1V151c0-0.552,0.448-1,1-1h26
	c0.552,0,1,0.448,1,1V158.5z"/>
<path fill="#EA5465" d="M46.302,168c0,0.552-0.448,1-1,1h-26c-0.552,0-1-0.448-1-1v-7.5c0-0.552,0.448-1,1-1h26c0.552,0,1,0.448,1,1
	V168z"/>
<rect x="18.302" y="156.083" fill="#5085C5" width="28" height="6.833"/>
<path fill="#EA5465" d="M93.242,168.083c0,0.552-0.448,1-1,1h-26c-0.552,0-1-0.448-1-1v-17c0-0.552,0.448-1,1-1h26
	c0.552,0,1,0.448,1,1V168.083z"/>
<rect x="65.242" y="161.917" fill="#F5F7FA" width="28" height="3.417"/>
<rect x="77.356" y="154.458" fill="#F5F7FA" width="15.886" height="3.417"/>
<path fill="#5085C5" d="M74.356,156.875c0,0.552-0.448,1-1,1h-7.114c-0.552,0-1-0.448-1-1v-5.792c0-0.552,0.448-1,1-1h7.114
	c0.552,0,1,0.448,1,1V156.875z"/>
<rect x="67.964" y="150.083" fill="#5085C5" width="9.392" height="11.833"/>
<rect x="65.242" y="157.417" fill="#5085C5" width="5.281" height="4.5"/>
<g id="Your_Icon">
	<polygon fill="#FFFFFF" points="71.378,153.168 72.299,155.033 74.356,155.331 72.867,156.783 73.219,158.832 71.378,157.864 
		69.538,158.832 69.89,156.783 68.401,155.331 70.458,155.033 	"/>
</g>
</svg>
